<?xml version="1.0" standalone="no"?>
<!DOCTYPE svg PUBLIC "-//W3C//DTD SVG 20010904//EN"
 "http://www.w3.org/TR/2001/REC-SVG-20010904/DTD/svg10.dtd">
<svg version="1.0" xmlns="http://www.w3.org/2000/svg"
 width="16.000000pt" height="16.000000pt" viewBox="0 0 16.000000 16.000000"
 preserveAspectRatio="xMidYMid meet">
<metadata>
Created by potrace 1.11, written by Peter Selinger 2001-2013
</metadata>
<g transform="translate(0.000000,16.000000) scale(0.003071,-0.003071)"
fill="#000000" stroke="none">
<path d="M870 4279 c0 -6 -7 -8 -17 -5 -10 4 -14 4 -10 0 3 -4 -10 -25 -29
-47 -44 -49 -66 -96 -99 -218 -34 -126 -93 -491 -106 -664 -14 -177 -6 -1153
9 -1280 10 -79 33 -374 34 -445 0 -14 2 -20 5 -14 2 6 19 -4 37 -22 38 -38 72
-49 121 -40 79 15 126 91 106 171 -6 24 -11 88 -11 142 0 54 -7 161 -15 238
-20 191 -21 1177 -1 1340 32 253 89 551 110 572 20 20 178 -160 243 -276 20
-35 85 -186 145 -335 60 -149 122 -298 137 -331 15 -33 45 -103 66 -155 21
-52 55 -122 74 -155 20 -33 34 -64 32 -70 -1 -5 1 -7 5 -3 9 10 66 -31 59 -42
-3 -5 0 -12 6 -16 8 -5 9 -3 4 6 -6 10 -4 12 11 6 81 -33 142 -31 211 9 106
63 196 262 297 660 53 212 70 261 124 376 55 115 109 174 192 211 74 34 186
58 266 58 67 0 70 -5 123 -166 51 -157 95 -433 108 -679 l6 -115 -71 0 c-104
0 -219 -18 -286 -45 -33 -13 -64 -21 -70 -18 -6 3 -8 3 -4 -2 4 -4 -19 -24
-52 -44 -71 -43 -119 -82 -185 -150 -27 -27 -53 -47 -58 -44 -6 3 -7 2 -4 -4
9 -14 -22 -55 -35 -47 -6 4 -8 2 -4 -4 3 -6 -5 -28 -19 -49 -27 -38 -45 -59
-30 -34 5 10 4 12 -4 7 -6 -4 -9 -11 -6 -15 2 -5 -10 -32 -28 -62 -140 -235
-186 -466 -174 -886 6 -221 14 -260 79 -407 72 -163 90 -200 135 -278 25 -43
41 -83 37 -89 -4 -8 -3 -9 4 -5 7 4 12 3 12 -2 0 -5 30 -50 67 -98 70 -94 153
-179 215 -221 21 -14 35 -30 31 -36 -4 -6 -1 -7 6 -3 7 5 20 1 30 -8 35 -31
193 -97 278 -116 165 -35 261 -42 503 -38 l235 3 87 42 c48 22 90 38 94 35 4
-4 4 -2 1 5 -9 14 120 106 135 97 7 -4 8 -2 4 4 -4 6 17 29 49 53 31 23 73 64
94 90 21 27 42 45 46 41 3 -4 5 -2 4 3 -5 17 21 58 62 98 55 52 79 95 79 141
0 95 -113 167 -193 124 -44 -23 -129 -104 -154 -146 -14 -23 -29 -40 -34 -36
-5 3 -6 -3 -2 -12 5 -13 3 -16 -10 -11 -9 3 -19 1 -23 -5 -4 -7 -3 -8 4 -4 17
10 15 -6 -4 -33 -10 -14 -23 -21 -34 -18 -14 3 -17 1 -13 -11 5 -11 2 -14 -10
-9 -9 3 -21 -1 -29 -11 -12 -15 -11 -16 7 -3 11 7 5 -1 -14 -17 -19 -17 -38
-29 -43 -26 -5 3 -7 1 -6 -4 2 -5 -21 -26 -51 -47 -29 -20 -50 -31 -46 -23 3
7 0 5 -8 -4 -26 -33 -66 -38 -290 -38 -179 0 -241 4 -322 20 -88 17 -201 54
-215 70 -3 3 -29 21 -57 39 -29 18 -50 37 -47 42 3 5 2 8 -3 7 -14 -4 -63 41
-116 105 -45 56 -52 70 -47 92 1 5 -2 7 -6 2 -10 -10 -56 72 -47 86 3 5 2 7
-4 4 -9 -6 -80 120 -85 153 -2 8 -5 17 -8 20 -16 16 -79 164 -90 211 -17 78
-8 549 13 639 18 79 54 176 71 193 7 6 13 14 13 17 1 19 16 50 24 50 5 0 8 4
7 8 -2 5 12 32 30 61 29 47 34 52 50 40 14 -11 15 -11 5 1 -16 18 -17 34 -1
24 7 -5 8 -3 3 6 -11 19 139 159 214 199 33 17 61 29 61 24 0 -4 5 -1 10 7 7
12 34 15 132 15 l123 0 3 -40 c19 -283 73 -690 102 -765 11 -29 46 -254 64
-410 13 -112 23 -141 60 -165 47 -31 85 -35 160 -19 100 22 124 32 152 69 29
38 33 112 8 155 -19 31 -63 60 -92 60 -22 0 -19 -9 -53 214 -11 76 -25 150
-30 164 -21 55 -48 226 -68 427 -12 116 -23 229 -27 253 -5 40 -4 42 20 42 31
0 229 -37 275 -52 26 -8 30 -13 20 -20 -11 -7 -9 -8 5 -4 17 6 69 -19 99 -48
29 -27 124 -104 150 -120 43 -26 117 -32 160 -11 38 18 77 81 77 124 0 42 -30
87 -77 117 -26 16 -63 44 -82 63 -43 40 -130 100 -189 130 -57 29 -244 75
-369 91 l-101 13 -7 111 c-3 61 -15 185 -26 276 -10 91 -22 188 -25 215 -8 68
-36 182 -76 307 -18 57 -32 109 -32 115 1 7 -2 11 -6 8 -4 -3 -11 6 -14 20 -3
13 -28 53 -55 89 -38 50 -46 67 -37 77 9 11 8 11 -5 1 -12 -9 -24 -8 -57 8
-34 17 -62 20 -165 20 -71 0 -160 -7 -207 -16 -88 -16 -243 -79 -295 -118 -18
-14 -36 -22 -40 -18 -5 4 -6 2 -2 -4 3 -5 -8 -23 -24 -38 -108 -102 -205 -311
-280 -603 -51 -200 -118 -417 -144 -463 l-13 -25 -11 25 c-92 221 -296 719
-317 775 -10 28 -38 83 -61 123 -24 40 -43 75 -43 78 0 4 -11 20 -26 36 -14
17 -23 36 -20 43 2 7 -3 12 -12 11 -10 -1 -16 6 -16 16 1 10 -2 16 -6 13 -10
-6 -131 131 -122 140 4 3 3 5 -3 3 -14 -4 -56 27 -47 36 4 4 2 6 -3 5 -6 -2
-32 8 -60 21 -43 21 -66 25 -157 27 -72 2 -108 -1 -108 -8z"/>
</g>
</svg>
